<?xml version="1.0" encoding="UTF-8" standalone="no"?>


<svg height="690.0pt" stroke-miterlimit="10" style="fill-rule:nonzero;clip-rule:evenodd;stroke-linecap:round;stroke-linejoin:round;" version="1.1" viewBox="0 0 3024 690" width="3024.0pt" xml:space="preserve" xmlns="http://www.w3.org/2000/svg" xmlns:xlink="http://www.w3.org/1999/xlink">
<defs></defs>
<g id="Layer-1">
<g opacity="1">
<path d="M353.581 10.0006C163.722 10.0004 9.81112 163.911 9.81112 353.77C9.81106 498.564 99.4541 622.21 226.165 672.864L239.837 659.126L309.763 589.2C309.784 589.204 309.807 589.197 309.828 589.2L353.581 545.383L397.398 589.2L461.074 652.876L480.997 672.864C607.707 622.211 697.351 498.564 697.351 353.77C697.351 163.912 543.44 10.0007 353.581 10.0006ZM353.581 114.173C485.907 114.173 593.178 221.445 593.178 353.77C593.178 431.275 556.255 499.947 499.162 543.69L427.218 471.746L454.042 444.921L453.782 444.661C475.604 420.619 489.005 388.796 489.005 353.77C489.005 278.977 428.374 218.346 353.581 218.346C278.788 218.346 218.156 278.977 218.156 353.77C218.156 390.521 232.805 423.842 256.57 448.242L256.505 448.307L279.944 471.746L208 543.625C150.925 499.881 113.984 431.261 113.984 353.77C113.984 221.445 221.255 114.173 353.581 114.173ZM353.581 322.519C370.841 322.519 384.833 336.511 384.833 353.77C384.833 362.451 381.237 370.244 375.522 375.907L375.652 376.037L353.581 398.109L331.509 376.037L331.639 375.907C325.925 370.244 322.329 362.451 322.329 353.77C322.329 336.51 336.321 322.519 353.581 322.519Z" fill="#000000" fill-rule="nonzero" opacity="1" stroke="none"></path>
<g opacity="1">
<path d="M2951.27 413.865" fill="none" opacity="1" stroke="#000000" stroke-linecap="butt" stroke-linejoin="round" stroke-width="1"></path>
<g opacity="1">
<path d="M1670.51 594.763C1627.62 594.763 1591.42 586.709 1561.89 570.602C1532.37 554.494 1509.92 531.731 1494.54 502.312C1479.15 472.893 1471.46 438.191 1471.46 398.207L1471.46 128.932L1573.39 128.932L1573.39 401.936C1573.39 421.617 1577.17 438.839 1584.74 453.6C1592.3 468.361 1603.28 479.73 1617.68 487.706C1632.07 495.682 1649.68 499.67 1670.51 499.67C1691.33 499.67 1708.91 495.708 1723.26 487.784C1737.6 479.859 1748.48 468.594 1755.89 453.988C1763.29 439.383 1767 422.032 1767 401.936L1767 128.932L1868.93 128.932L1868.93 398.207C1868.93 438.191 1861.34 472.893 1846.16 502.312C1830.99 531.731 1808.66 554.494 1779.19 570.602C1749.72 586.709 1713.49 594.763 1670.51 594.763Z" fill="#000000" fill-rule="nonzero" opacity="1" stroke="none"></path>
<path d="M1951.74 582.644L1951.74 125.514L2053.67 125.514L2053.67 582.644L1951.74 582.644ZM2226.92 582.644L2093.76 387.641L2205.79 387.641L2345.16 582.644L2226.92 582.644ZM2026.01 437.207L2026.01 357.031L2138.04 357.031C2153.06 357.031 2166.01 354.027 2176.88 348.019C2187.76 342.011 2196.23 333.542 2202.29 322.614C2208.35 311.686 2211.38 299.022 2211.38 284.623C2211.38 269.914 2208.35 257.095 2202.29 246.167C2196.23 235.238 2187.76 226.744 2176.88 220.684C2166.01 214.624 2153.06 211.594 2138.04 211.594L2026.01 211.594L2026.01 125.514L2130.11 125.514C2167.92 125.514 2200.66 131.185 2228.32 142.528C2255.97 153.871 2277.26 170.755 2292.18 193.182C2307.09 215.608 2314.55 243.655 2314.55 277.321L2314.55 287.265C2314.55 320.931 2306.99 348.822 2291.87 370.937C2276.74 393.053 2255.46 409.627 2228 420.659C2200.55 431.691 2167.92 437.207 2130.11 437.207L2026.01 437.207Z" fill="#000000" fill-rule="nonzero" opacity="1" stroke="none"></path>
<path d="M2396.28 582.644L2396.28 128.932L2500.45 128.932L2500.45 582.644L2396.28 582.644Z" fill="#000000" fill-rule="nonzero" opacity="1" stroke="none"></path>
<path d="M2548.08 582.644L2698.02 128.932L2862.72 128.932L3017.64 582.644L2912.44 582.644L2786.74 199.475L2818.9 212.527L2739.04 212.527L2772.13 199.475L2650.01 582.644L2548.08 582.644ZM2661.5 469.993L2692.73 385.465L2870.8 385.465L2902.03 469.993L2661.5 469.993Z" fill="#000000" fill-rule="nonzero" opacity="1" stroke="none"></path>
<path d="M973.772 355.789C973.772 488.115 1081.04 595.386 1213.37 595.386C1291.91 595.386 1361.35 557.422 1405.05 499.026L1330.11 424.087C1306.6 464.19 1263.21 491.214 1213.37 491.213C1138.58 491.213 1077.95 430.582 1077.95 355.789C1077.95 280.996 1138.58 220.364 1213.37 220.365C1262.78 220.365 1305.8 246.93 1329.46 286.449L1404.33 211.575C1360.59 153.731 1291.48 116.192 1213.37 116.192C1081.04 116.192 973.772 223.463 973.772 355.789Z" fill="#070707" fill-rule="nonzero" opacity="1" stroke="none"></path>
</g>
</g>
</g>
</g>
</svg>