<?xml version="1.0" encoding="UTF-8" standalone="no"?>


<svg height="100%" stroke-miterlimit="10" style="fill-rule:nonzero;clip-rule:evenodd;stroke-linecap:round;stroke-linejoin:round;" version="1.1" viewBox="0 0 1024 1024" width="100%" xml:space="preserve" xmlns="http://www.w3.org/2000/svg" xmlns:xlink="http://www.w3.org/1999/xlink">
<defs></defs>
<g id="Layer-1">
<path d="M512.362 7.76649C237.048 7.76625 13.8623 230.952 13.8623 506.266C13.8622 716.231 143.853 895.53 327.596 968.983L347.423 949.062L448.822 847.662C448.852 847.668 448.886 847.657 448.916 847.662L512.362 784.123L575.901 847.662L668.237 939.998L697.127 968.983C880.87 895.53 1010.86 716.231 1010.86 506.266C1010.86 230.952 787.675 7.76662 512.362 7.76649ZM512.362 158.827C704.247 158.827 859.8 314.381 859.801 506.266C859.801 618.655 806.259 718.236 723.469 781.668L619.142 677.342L658.041 638.444L657.663 638.066C689.306 603.203 708.74 557.057 708.74 506.266C708.74 397.809 620.819 309.887 512.362 309.887C403.905 309.887 315.983 397.809 315.983 506.266C315.983 559.558 337.225 607.877 371.687 643.259L371.592 643.353L405.581 677.342L301.255 781.573C218.491 718.14 164.923 618.635 164.923 506.266C164.923 314.381 320.476 158.827 512.362 158.827ZM512.362 460.948C537.39 460.948 557.68 481.237 557.68 506.266C557.68 518.854 552.465 530.154 544.179 538.366L544.368 538.555L512.362 570.561L480.356 538.555L480.545 538.366C472.258 530.154 467.043 518.854 467.044 506.266C467.044 481.237 487.333 460.948 512.362 460.948Z" fill="currentColor" fill-rule="nonzero" opacity="1" stroke="none"></path>
</g>
</svg>